<?xml version="1.0" encoding="UTF-8"?>
<svg version="1.1" xmlns="http://www.w3.org/2000/svg" width="496" height="413">
<path d="M0 0 C0.9172435 -0.0065712 1.834487 -0.0131424 2.77952576 -0.01991272 C5.82404659 -0.03967109 8.86851803 -0.05131441 11.91308594 -0.0612793 C12.95185631 -0.06535482 13.99062668 -0.06943035 15.06087494 -0.07362938 C20.55962425 -0.09450166 26.05834853 -0.10879797 31.55712891 -0.11816406 C37.23789984 -0.12922661 42.91827887 -0.16362164 48.59891129 -0.20333576 C52.9655429 -0.22947939 57.33208087 -0.23785395 61.69878387 -0.24144554 C63.79274897 -0.24631787 65.88670971 -0.25795019 67.98059845 -0.27648354 C70.91316265 -0.30082505 73.8447095 -0.29991884 76.77734375 -0.29296875 C77.64095016 -0.30577881 78.50455658 -0.31858887 79.39433289 -0.33178711 C84.7857143 -0.2852646 87.95086603 0.4824497 92.14746094 4.17700195 C97.20053095 9.57825857 96.72445804 15.14305105 96.69335938 22.14208984 C96.70369139 23.35110301 96.7140234 24.56011618 96.7246685 25.80576611 C96.74914036 29.13704421 96.75590646 32.46748687 96.75494051 35.79879665 C96.75814943 39.35550832 96.78406534 42.91206139 96.80722046 46.46868896 C96.84840949 53.34639914 96.86861022 60.22401359 96.88142073 67.10182893 C96.89699021 75.02770615 96.9339435 82.95344027 96.97169518 90.87923753 C97.05295181 108.15534785 97.09750156 125.43145551 97.13313949 142.70771056 C97.14845926 149.97418267 97.17059352 157.24062749 97.19335938 164.50708008 C97.22973143 176.36898235 97.25568329 188.23086454 97.26905823 200.0928154 C97.27131819 202.01669735 97.27390966 203.94057894 97.27684021 205.86445999 C97.28105217 208.65036242 97.28436562 211.43626373 97.28710938 214.22216797 C97.28809883 215.10458632 97.28908829 215.98700468 97.29010773 216.89616299 C97.29155393 221.06352232 97.27863526 225.22985671 97.23046875 229.3969574 C97.21728481 230.54218447 97.21728481 230.54218447 97.20383453 231.71054745 C97.18668833 233.18586851 97.16899985 234.66118339 97.15071869 236.13649082 C97.11336048 240.37845483 97.25412285 244.57182532 97.53125 248.80395508 C97.99443496 258.32221222 97.02889436 264.17327043 90.70291138 271.57447815 C86.87734081 275.62379436 82.79509856 279.33813041 78.64746094 283.05200195 C76.96954961 284.63292981 75.29632343 286.21884568 73.62792969 287.80981445 C61.61147015 299.17700195 61.61147015 299.17700195 60.14746094 299.17700195 C60.14838273 298.02625309 60.14930452 296.87550423 60.15025425 295.68988419 C60.17190399 268.38406966 60.18839739 241.07825607 60.19852627 213.77243473 C60.199777 210.41282431 60.20107132 207.05321391 60.20239258 203.69360352 C60.20265489 203.02475505 60.2029172 202.35590658 60.20318746 201.66678998 C60.20754082 190.83159109 60.21542654 179.99639749 60.22461373 169.16120175 C60.23395954 158.04638101 60.23944365 146.93156245 60.24154943 135.81673789 C60.24285534 129.57242294 60.24593372 123.32812001 60.25319099 117.0838089 C60.25996219 111.21032011 60.26207564 105.33684834 60.26056862 99.46335602 C60.26084445 97.30420845 60.26284306 95.14506034 60.26666641 92.98591614 C60.27162078 90.04456507 60.27045271 87.10327874 60.26771545 84.16192627 C60.2706283 83.30200522 60.27354114 82.44208416 60.27654225 81.5561049 C60.26737486 77.92678983 60.12963347 74.66949222 59.14746094 71.17700195 C58.25016675 72.07429614 57.35287256 72.97159033 56.42838764 73.89607525 C0.11750507 130.20695782 -56.19337749 186.51784039 -112.50426006 242.82872295 C-113.36579286 243.69067872 -113.36579286 243.69067872 -114.24473035 244.57004774 C-115.27674008 245.60150899 -116.3098079 246.6319133 -117.34420645 247.66097891 C-119.80515266 250.11097036 -122.15521931 252.60217171 -124.41503906 255.23950195 C-129.4948263 261.08125727 -129.4948263 261.08125727 -131.85253906 263.17700195 C-132.51253906 263.17700195 -133.17253906 263.17700195 -133.85253906 263.17700195 C-134.10003906 263.75450195 -134.34753906 264.33200195 -134.60253906 264.92700195 C-136.01937223 267.47730165 -137.72881443 269.19485897 -139.85253906 271.17700195 C-143.45654354 269.65373408 -145.74200543 267.51904712 -148.47753906 264.74731445 C-149.34894531 263.86946289 -150.22035156 262.99161133 -151.11816406 262.0871582 C-152.02050781 261.16805664 -152.92285156 260.24895508 -153.85253906 259.30200195 C-154.75488281 258.39063477 -155.65722656 257.47926758 -156.58691406 256.5402832 C-158.26889269 254.84088764 -159.94880784 253.13944547 -161.62597656 251.43530273 C-163.69215811 249.33966904 -165.76891332 247.25527592 -167.85253906 245.17700195 C-167.37945312 244.77610352 -166.90636719 244.37520508 -166.41894531 243.9621582 C-161.60784061 239.82629627 -157.12514702 235.48064684 -152.73535156 230.8996582 C-150.85253906 229.17700195 -150.85253906 229.17700195 -148.85253906 229.17700195 C-148.60503906 228.59950195 -148.35753906 228.02200195 -148.10253906 227.42700195 C-146.66953918 224.84760216 -145.0682923 223.11578603 -142.85253906 221.17700195 C-142.19253906 221.17700195 -141.53253906 221.17700195 -140.85253906 221.17700195 C-140.58441406 220.53762695 -140.31628906 219.89825195 -140.04003906 219.23950195 C-138.85253906 217.17700195 -138.85253906 217.17700195 -135.85253906 216.17700195 C-135.85253906 215.51700195 -135.85253906 214.85700195 -135.85253906 214.17700195 C-134.22625559 212.44991118 -132.56442591 210.81664388 -130.85253906 209.17700195 C-129.59063004 207.91656855 -128.33198379 206.65286414 -127.07575989 205.38676453 C-126.36498795 204.67310226 -125.654216 203.95944 -124.92190552 203.22415161 C-124.15756195 202.45666595 -123.39321838 201.6891803 -122.60571289 200.8984375 C-114.30441802 192.56449321 -105.99809306 184.23557993 -97.68878651 175.90962505 C-92.66228947 170.87278375 -87.63770836 165.83405744 -82.61743164 160.79101562 C-77.75977793 155.9113464 -72.89696071 151.03687295 -68.03088951 146.16559792 C-66.17470258 144.30570503 -64.32028179 142.44404785 -62.46763039 140.58063316 C-59.88673615 137.98532494 -57.29975697 135.39623754 -54.71118164 132.80859375 C-53.94076538 132.03098694 -53.17034912 131.25338013 -52.37658691 130.45220947 C-51.67427444 129.75264633 -50.97196198 129.05308319 -50.24836731 128.33232117 C-49.6372601 127.71937037 -49.0261529 127.10641958 -48.39652729 126.47489452 C-46.85253906 125.17700195 -46.85253906 125.17700195 -44.85253906 125.17700195 C-44.35753906 123.69200195 -44.35753906 123.69200195 -43.85253906 122.17700195 C-43.19253906 122.17700195 -42.53253906 122.17700195 -41.85253906 122.17700195 C-41.58295411 121.58196114 -41.31336916 120.98692032 -41.03561497 120.37384796 C-39.85411899 118.17993572 -38.68641307 116.77110869 -36.92332458 115.02746582 C-36.02526093 114.13178139 -36.02526093 114.13178139 -35.10905457 113.21800232 C-34.45391373 112.57476517 -33.79877289 111.93152802 -33.1237793 111.26879883 C-32.43259003 110.58213638 -31.74140076 109.89547394 -31.02926636 109.18800354 C-29.52926349 107.69895256 -28.02699344 106.21218275 -26.52273369 104.72743225 C-24.14388194 102.37871964 -21.77174909 100.02341144 -19.40138245 97.6661377 C-12.66120827 90.96574211 -5.90841446 84.27811524 0.84741211 77.59350586 C4.97972172 73.50384314 9.10475152 69.40695061 13.22553825 65.30567932 C14.7987636 63.74303936 16.37489803 62.18332266 17.95395088 60.62657166 C20.15878487 58.45283446 22.35434935 56.27012313 24.5480957 54.08520508 C25.20526077 53.44196793 25.86242584 52.79873077 26.539505 52.13600159 C27.13539429 51.53887863 27.73128357 50.94175568 28.3452301 50.32653809 C29.12531858 49.55449413 29.12531858 49.55449413 29.92116642 48.76685333 C31.29042501 47.21369812 31.29042501 47.21369812 31.66635036 45.05437469 C31.82511685 44.43484169 31.98388334 43.81530869 32.14746094 43.17700195 C34.64746094 41.98950195 34.64746094 41.98950195 37.14746094 41.17700195 C37.47746094 40.84700195 37.80746094 40.51700195 38.14746094 40.17700195 C26.79745136 39.18783664 15.53504358 39.08468201 4.14852905 39.15869141 C-12.54832587 39.26273138 -29.17932321 39.17135774 -45.85253906 38.17700195 C-44.43499164 35.14901927 -42.92657309 33.08809933 -40.50244141 30.76538086 C-38.38598786 28.72784804 -36.33607491 26.62924667 -34.27832031 24.5324707 C-32.5740203 22.80968874 -30.86958978 21.08703587 -29.16503906 19.36450195 C-28.29814453 18.48084961 -27.43125 17.59719727 -26.53808594 16.68676758 C-25.29575195 15.43476562 -25.29575195 15.43476562 -24.02832031 14.1574707 C-22.89777222 13.01121216 -22.89777222 13.01121216 -21.74438477 11.84179688 C-19.85253906 10.17700195 -19.85253906 10.17700195 -17.85253906 10.17700195 C-17.48128906 9.24887695 -17.48128906 9.24887695 -17.10253906 8.30200195 C-15.62483144 5.78989899 -14.4129873 5.41592852 -11.85253906 4.17700195 C-11.52253906 3.18700195 -11.19253906 2.19700195 -10.85253906 1.17700195 C-7.49285345 -0.50284085 -3.69594205 0.01140071 0 0 Z " fill="#228DFC" transform="translate(245.8525390625,47.822998046875)"/>
<path d="M0 0 C0.99 0 1.98 0 3 0 C2.979375 0.94875 2.95875 1.8975 2.9375 2.875 C2.77448174 5.90666283 2.77448174 5.90666283 4 8 C3.67027423 10.33384585 3.3363043 12.66709302 3 15 C2.99832874 17.4679434 3.05045083 19.93634577 3.1484375 22.40234375 C3.18542932 23.80138496 3.22052755 25.2004773 3.25390625 26.59960938 C3.30934712 28.7708799 3.37508308 30.93933823 3.47314453 33.10913086 C3.56486877 35.22815283 3.61028579 37.34426288 3.6484375 39.46484375 C3.71297119 41.34610962 3.71297119 41.34610962 3.77880859 43.26538086 C1.91360382 52.20959321 -8.21972083 59.36861282 -14.4934082 65.63867188 C-15.53571483 66.68397674 -16.57781827 67.72948422 -17.61973572 68.775177 C-20.42687079 71.59107856 -23.23717737 74.40379336 -26.04837823 77.2156353 C-27.80533118 78.97330178 -29.56156909 80.73167949 -31.31755638 82.49031067 C-37.44461894 88.62659504 -43.57422892 94.76032118 -49.70629883 100.89160156 C-55.42375755 106.60845704 -61.13558721 112.33089478 -66.84486896 118.05591536 C-71.75269758 122.97679141 -76.66434515 127.89383312 -81.57902211 132.80786943 C-84.51225681 135.74084877 -87.44390583 138.67537194 -90.3717289 141.61375427 C-93.11785665 144.36951842 -95.86868409 147.12050055 -98.62328529 149.86779404 C-99.63527728 150.87873532 -100.64554828 151.89140261 -101.65400314 152.90587234 C-103.02554039 154.28506239 -104.40379108 155.65756676 -105.78242493 157.02966309 C-106.55317006 157.80095299 -107.3239152 158.57224289 -108.11801624 159.36690521 C-110 161 -110 161 -112 161 C-112.20753906 161.53496094 -112.41507813 162.06992187 -112.62890625 162.62109375 C-114.54456452 165.94484271 -117.20540342 168.41486776 -119.9375 171.0625 C-120.47568359 171.59166016 -121.01386719 172.12082031 -121.56835938 172.66601562 C-123.04205208 174.1142685 -124.52082454 175.55734739 -126 177 C-126.51248291 177.55228271 -127.02496582 178.10456543 -127.55297852 178.67358398 C-129 180 -129 180 -131 180 C-131.268125 180.639375 -131.53625 181.27875 -131.8125 181.9375 C-133 184 -133 184 -136 185 C-136.68502385 186.32399568 -137.34859211 187.6591458 -138 189 C-139.32774288 190.4610504 -140.70631676 191.87708074 -142.125 193.25 C-142.84945312 193.95640625 -143.57390625 194.6628125 -144.3203125 195.390625 C-145.15175781 196.18726563 -145.15175781 196.18726563 -146 197 C-150.44084983 195.37908981 -152.7637988 193.47891629 -156 190 C-157.3921875 188.6696875 -157.3921875 188.6696875 -158.8125 187.3125 C-161 185 -161 185 -161 183 C-161.58265625 182.73445312 -162.1653125 182.46890625 -162.765625 182.1953125 C-165.06174228 180.96697004 -166.80356018 179.59685061 -168.75 177.875 C-169.36359375 177.33617187 -169.9771875 176.79734375 -170.609375 176.2421875 C-171.06828125 175.83226562 -171.5271875 175.42234375 -172 175 C-171.43577421 171.22901197 -169.89835913 169.56649351 -167.18359375 166.9609375 C-166.41982422 166.21585938 -165.65605469 165.47078125 -164.86914062 164.703125 C-164.06669922 163.93484375 -163.26425781 163.1665625 -162.4375 162.375 C-160.84848459 160.84568381 -159.26360966 159.31204978 -157.68359375 157.7734375 C-156.97775146 157.09716309 -156.27190918 156.42088867 -155.54467773 155.72412109 C-153.7775717 154.13754413 -153.7775717 154.13754413 -154 152 C-153.34 151.62875 -152.68 151.2575 -152 150.875 C-148.34542919 148.59089324 -145.71324903 145.76836178 -142.76953125 142.64453125 C-141 141 -141 141 -139 141 C-139 140.34 -139 139.68 -139 139 C-138.34 139 -137.68 139 -137 139 C-136.6118084 138.12383278 -136.6118084 138.12383278 -136.21577454 137.22996521 C-134.90524831 134.82620712 -133.48751278 133.24656626 -131.54760742 131.32055664 C-130.4909211 130.26409691 -130.4909211 130.26409691 -129.41288757 129.18629456 C-128.65143936 128.43516891 -127.88999115 127.68404327 -127.10546875 126.91015625 C-126.3210994 126.12861679 -125.53673004 125.34707733 -124.72859192 124.54185486 C-122.21955151 122.04400182 -119.70366023 119.55317891 -117.1875 117.0625 C-115.50409855 115.38913324 -113.82115052 113.71531021 -112.13867188 112.04101562 C-108.37075264 108.29296112 -104.60101502 104.54679457 -100.81893921 100.8130188 C-99.69414093 99.69188159 -98.57904163 98.5608012 -97.48013306 97.41427612 C-95.29307582 95.13588149 -94.06443758 94.02147919 -91 93 C-90.505 91.515 -90.505 91.515 -90 90 C-89.34 90 -88.68 90 -88 90 C-87.505 88.515 -87.505 88.515 -87 87 C-85.53427381 85.76227566 -84.06469408 84.52810996 -82.55859375 83.33984375 C-80.75878063 81.87616825 -80.75878063 81.87616825 -78.75 79.1875 C-77.88375 78.1046875 -77.88375 78.1046875 -77 77 C-76.34 77 -75.68 77 -75 77 C-75 76.34 -75 75.68 -75 75 C-73.64453125 73.703125 -73.64453125 73.703125 -71.8125 72.25 C-69.31341917 70.19609956 -67.19512386 68.16157864 -65.1875 65.625 C-64.465625 64.75875 -63.74375 63.8925 -63 63 C-62.34 63 -61.68 63 -61 63 C-61 62.34 -61 61.68 -61 61 C-60.34 61 -59.68 61 -59 61 C-59 60.34 -59 59.68 -59 59 C-58.01 58.01 -58.01 58.01 -57 57 C-56.34 56.29875 -55.68 55.5975 -55 54.875 C-53 53 -53 53 -51 53 C-51 52.34 -51 51.68 -51 51 C-50.34 51 -49.68 51 -49 51 C-48.67 50.01 -48.34 49.02 -48 48 C-46.47850037 46.49726868 -46.47850037 46.49726868 -44.51733398 44.8840332 C-39.67587648 40.77311555 -35.20623837 36.35027427 -30.72265625 31.85546875 C-29.87070175 31.00447098 -29.01874725 30.15347321 -28.14097595 29.27668762 C-26.355695 27.49208294 -24.57165928 25.70623176 -22.78881836 23.91918945 C-20.04980339 21.17477838 -17.30544048 18.43579568 -14.56054688 15.69726562 C-12.82259558 13.95865423 -11.08495414 12.21973305 -9.34765625 10.48046875 C-8.52483658 9.65967331 -7.70201691 8.83887787 -6.85426331 7.99320984 C-6.09935104 7.23514542 -5.34443878 6.47708099 -4.56665039 5.69604492 C-3.90016983 5.02876877 -3.23368927 4.36149261 -2.54701233 3.67399597 C-0.91695628 2.06608828 -0.91695628 2.06608828 0 0 Z " fill="#218DFC" transform="translate(293,163)"/>
<path d="M0 0 C0.98866122 8.76956896 1.34521355 17.52602784 1.45996094 26.34399414 C1.48675067 27.91201009 1.52787345 29.47984383 1.58300781 31.04711914 C2.09225323 45.78302492 2.09225323 45.78302492 -2.32421875 50.86328125 C-3.52186032 51.94037943 -4.74670362 52.98820259 -6 54 C-7.11237193 55.1588459 -8.21709955 56.32509873 -9.3125 57.5 C-12 60 -12 60 -14 60 C-14.66 61.32 -15.32 62.64 -16 64 C-16.66 64 -17.32 64 -18 64 C-18.26167969 64.60070312 -18.52335937 65.20140625 -18.79296875 65.8203125 C-20.07422799 68.13404277 -21.24807082 69.2545833 -23.3125 70.875 C-25.68050393 72.81910199 -27.45579494 74.54929134 -29.4375 76.9375 C-31.41168845 79.29689595 -33.10879378 81.01930517 -35.42504883 82.96240234 C-41.14709993 87.91387688 -46.42800871 93.30383093 -51.76171875 98.6640625 C-52.88151862 99.78573264 -54.00154332 100.90717837 -55.1217804 102.02841187 C-58.04992773 104.96034814 -60.97506124 107.89527282 -63.89953613 110.83087158 C-66.87195948 113.81354326 -69.84722683 116.79337498 -72.82226562 119.7734375 C-78.05590221 125.01660178 -83.2870652 130.26222265 -88.5164032 135.50967407 C-89.74578362 136.74238541 -89.74578362 136.74238541 -91 138 C-91.86877274 138.91035004 -92.73754547 139.82070007 -93.63264465 140.75863647 C-96 143 -96 143 -99 144 C-99.29648438 144.59296875 -99.59296875 145.1859375 -99.8984375 145.796875 C-101.32235518 148.64471035 -103.21621327 150.18532566 -105.625 152.25 C-106.44226563 152.95640625 -107.25953125 153.6628125 -108.1015625 154.390625 C-109.04128906 155.18726563 -109.04128906 155.18726563 -110 156 C-115.37322976 151.48931502 -120.48975137 146.78504366 -125.5 141.875 C-126.23992187 141.17246094 -126.97984375 140.46992188 -127.7421875 139.74609375 C-128.43570313 139.06417969 -129.12921875 138.38226563 -129.84375 137.6796875 C-130.79024414 136.76292236 -130.79024414 136.76292236 -131.75585938 135.82763672 C-133 134 -133 134 -132.77220154 132.10348511 C-131.86096135 129.62125726 -130.75618618 128.38183828 -128.88891602 126.51660156 C-127.90768517 125.52602753 -127.90768517 125.52602753 -126.90663147 124.51544189 C-126.19623215 123.81425232 -125.48583282 123.11306274 -124.75390625 122.390625 C-124.02759506 121.66381531 -123.30128387 120.93700562 -122.55296326 120.18817139 C-121.01733479 118.65488232 -119.47801478 117.12528285 -117.93530273 115.59912109 C-115.56642068 113.25388155 -113.21118625 110.89555788 -110.85742188 108.53515625 C-109.36537491 107.0486842 -107.87256224 105.56298024 -106.37890625 104.078125 C-105.67053116 103.3688385 -104.96215607 102.659552 -104.23231506 101.92877197 C-103.575009 101.28099792 -102.91770294 100.63322388 -102.24047852 99.96582031 C-101.66169449 99.39164368 -101.08291046 98.81746704 -100.48658752 98.22589111 C-99 97 -99 97 -97 97 C-96.78005371 96.45539124 -96.56010742 95.91078247 -96.33349609 95.34967041 C-94.56652952 92.23620866 -92.18457975 89.90591138 -89.6640625 87.40527344 C-89.12078308 86.85848938 -88.57750366 86.31170532 -88.01776123 85.74835205 C-86.22516477 83.94697052 -84.42537258 82.15298232 -82.625 80.359375 C-81.37682289 79.10985071 -80.12894281 77.86002965 -78.88134766 76.60992432 C-76.26854023 73.99417032 -73.65215399 71.38206354 -71.03320312 68.77246094 C-67.67024761 65.42092324 -64.316381 62.06045611 -60.96511841 58.69723129 C-58.39174416 56.11664601 -55.81364522 53.54082354 -53.23406982 50.96643829 C-51.99498501 49.72869085 -50.75739297 48.4894472 -49.52130127 47.24871063 C-47.79762761 45.51998163 -46.06771477 43.79775419 -44.3359375 42.07714844 C-43.56597443 41.30111267 -43.56597443 41.30111267 -42.78045654 40.50939941 C-39.22853184 37 -39.22853184 37 -37 37 C-36.73960937 36.40058594 -36.47921875 35.80117188 -36.2109375 35.18359375 C-34.91715749 32.85061626 -33.70531236 31.70222219 -31.625 30.0625 C-29.44294502 28.2710598 -27.77805398 26.72256748 -26 24.5 C-23.75549372 21.69436715 -21.26877216 19.58857527 -18.48828125 17.33203125 C-16.87117455 16.04920055 -16.87117455 16.04920055 -16 14 C-15.34 14 -14.68 14 -14 14 C-13.75121094 13.41347656 -13.50242187 12.82695312 -13.24609375 12.22265625 C-11.82588804 9.68943667 -10.28816254 8.29014647 -8.0625 6.4375 C-6.07257916 4.76745429 -4.13326743 3.13511409 -2.30859375 1.28515625 C-1 0 -1 0 0 0 Z " fill="#228EFD" transform="translate(295,246)"/>
<path d="M0 0 C0 56.43 0 112.86 0 171 C-2.08715672 166.82568656 -2.2460689 165.06028187 -2.23377991 160.50964355 C-2.23528483 159.53482316 -2.23528483 159.53482316 -2.23682016 158.54030943 C-2.23777208 156.3646411 -2.22443476 154.18929657 -2.21118164 152.01367188 C-2.20898021 150.45309038 -2.2076749 148.89250741 -2.2071991 147.33192444 C-2.20426594 143.97230402 -2.19501939 140.61278093 -2.18089485 137.25318909 C-2.15863558 131.94219068 -2.15053982 126.63122844 -2.14439392 121.32019043 C-2.13301164 112.92085206 -2.11228439 104.52156722 -2.08749622 96.12225866 C-2.04317468 81.07816549 -2.00999024 66.03405363 -1.98725218 50.98991251 C-1.97883906 45.70899519 -1.96480811 40.42813086 -1.94627964 35.14723969 C-1.93564247 31.86385923 -1.92905494 28.58047928 -1.92347908 25.29708672 C-1.92000634 23.77327917 -1.91478983 22.24947446 -1.90771103 20.7256794 C-1.89826745 18.64721884 -1.89498422 16.56883561 -1.89320374 14.49035645 C-1.88968431 13.32671822 -1.88616488 12.16307999 -1.8825388 10.96417999 C-1.9072957 7.79301029 -1.9072957 7.79301029 -3 4 C-52.5 53.5 -102 103 -153 154 C-153 150.21558295 -151.62069613 149.25933284 -149.05718386 146.66061574 C-148.47101491 146.08182107 -147.88484596 145.50302641 -147.28091431 144.9066925 C-146.66570903 144.28751282 -146.05050376 143.66833314 -145.4166559 143.03039044 C-143.34167552 140.94574215 -141.25608409 138.87204121 -139.17041016 136.7980957 C-137.68535819 135.31061728 -136.20095235 133.82249354 -134.71714783 132.33377075 C-130.67653837 128.2837292 -126.62653917 124.24319787 -122.57457018 120.20452523 C-118.34396747 115.98520804 -114.12104874 111.75821307 -109.89706421 107.53227234 C-102.80181075 100.43613503 -95.7005889 93.34601381 -88.59570312 86.25952148 C-80.36985691 78.0548483 -72.15288008 69.8413756 -63.94073451 61.62299091 C-56.05493574 53.73150677 -48.16349298 45.84569135 -40.26923752 37.96266747 C-36.90307827 34.60116477 -33.53882546 31.2377707 -30.17604446 27.87288857 C-26.21957475 23.91454168 -22.25817526 19.96119617 -18.29283333 16.01173782 C-16.83417834 14.55734231 -15.37723804 13.10122487 -13.92209816 11.64331245 C-11.94365732 9.66167312 -9.95922607 7.6862413 -7.97305298 5.71235657 C-7.10049171 4.83412632 -7.10049171 4.83412632 -6.21030295 3.93815404 C-2.22832863 0 -2.22832863 0 0 0 Z " fill="#167AE8" transform="translate(308,115)"/>
<path d="M0 0 C0 3 0 3 -2.5 5.6875 C-3.325 6.450625 -4.15 7.21375 -5 8 C-5.66 7.67 -6.32 7.34 -7 7 C-4.69 4.69 -2.38 2.38 0 0 Z M-9 9 C-9 12.83093942 -10.47465942 13.83641276 -13.06944275 16.46492004 C-13.66938553 17.05721909 -14.26932831 17.64951813 -14.88745117 18.25976562 C-15.51340179 18.88936691 -16.13935242 19.5189682 -16.78427124 20.16764832 C-18.86315759 22.25466443 -20.95274521 24.33059315 -23.04296875 26.40625 C-24.48881769 27.85158046 -25.93414896 29.29742895 -27.37898254 30.74377441 C-30.41340421 33.77810623 -33.45294034 36.80719109 -36.49633789 39.83251953 C-40.39432511 43.70787 -44.28119909 47.59413913 -48.16450024 51.48419952 C-51.15040914 54.47345381 -54.14129219 57.45768974 -57.13378334 60.44035339 C-58.5684134 61.87113719 -60.00170095 63.30326841 -61.43361473 64.73677063 C-63.43938049 66.74290805 -65.45153428 68.74241028 -67.46557617 70.74023438 C-68.0553978 71.33253342 -68.64521942 71.92483246 -69.25291443 72.53507996 C-72.31909177 75.56203097 -75.22277777 77.86633826 -79 80 C-80.78344178 82.06954847 -80.78344178 82.06954847 -82 84 C-78.92488875 87.13318279 -75.83855161 90.25506978 -72.75 93.375 C-71.87730469 94.26445312 -71.00460938 95.15390625 -70.10546875 96.0703125 C-69.26113281 96.92109375 -68.41679687 97.771875 -67.546875 98.6484375 C-66.77182617 99.43395996 -65.99677734 100.21948242 -65.19824219 101.02880859 C-63.18276485 102.83611246 -61.47546426 103.94965361 -59 105 C-60.485 105.99 -60.485 105.99 -62 107 C-65.16737348 103.95609976 -68.31809034 100.89619024 -71.4543457 97.8203125 C-72.52379507 96.77602855 -73.59768596 95.73627331 -74.67602539 94.70117188 C-76.22427869 93.21348071 -77.75589136 91.71029773 -79.28515625 90.203125 C-80.21207275 89.30239258 -81.13898926 88.40166016 -82.09399414 87.47363281 C-84 85 -84 85 -83.81356812 83.06311035 C-82.85803485 80.63999354 -81.72963857 79.35531958 -79.88891602 77.51660156 C-78.90768517 76.52602753 -78.90768517 76.52602753 -77.90663147 75.51544189 C-77.19623215 74.81425232 -76.48583282 74.11306274 -75.75390625 73.390625 C-75.02759506 72.66381531 -74.30128387 71.93700562 -73.55296326 71.18817139 C-72.01733479 69.65488232 -70.47801478 68.12528285 -68.93530273 66.59912109 C-66.56642068 64.25388155 -64.21118625 61.89555788 -61.85742188 59.53515625 C-60.36537491 58.0486842 -58.87256224 56.56298024 -57.37890625 55.078125 C-56.67053116 54.3688385 -55.96215607 53.659552 -55.23231506 52.92877197 C-54.575009 52.28099792 -53.91770294 51.63322388 -53.24047852 50.96582031 C-52.66169449 50.39164368 -52.08291046 49.81746704 -51.48658752 49.22589111 C-50 48 -50 48 -48 48 C-47.72827972 47.40361725 -47.45655945 46.8072345 -47.17660522 46.19277954 C-46.0218087 44.04064376 -44.88910203 42.63578454 -43.17431641 40.91552734 C-42.60677643 40.34168304 -42.03923645 39.76783875 -41.45449829 39.17660522 C-40.84302948 38.56918488 -40.23156067 37.96176453 -39.6015625 37.3359375 C-38.97019379 36.70265533 -38.33882507 36.06937317 -37.68832397 35.41690063 C-36.35424492 34.08146269 -35.01764522 32.74853871 -33.67871094 31.41796875 C-31.63243078 29.38239192 -29.59702687 27.33637895 -27.5625 25.2890625 C-26.26366161 23.99154576 -24.96420293 22.69464957 -23.6640625 21.3984375 C-23.05664215 20.78696869 -22.4492218 20.17549988 -21.82339478 19.54550171 C-21.24955048 18.97796173 -20.67570618 18.41042175 -20.08447266 17.82568359 C-19.58420563 17.32700775 -19.0839386 16.82833191 -18.56851196 16.31454468 C-16.82368472 14.85223299 -15.03762411 14.00028007 -13 13 C-11.62913085 11.70529025 -10.28659163 10.37849103 -9 9 Z " fill="#228BF4" transform="translate(246,295)"/>
<path d="M0 0 C0.66 0.33 1.32 0.66 2 1 C-9.22 12.22 -20.44 23.44 -32 35 C-27.87672604 39.81048628 -23.82791541 44.35438258 -19.375 48.8125 C-18.53582031 49.67004883 -18.53582031 49.67004883 -17.6796875 50.54492188 C-13.81152041 54.43060382 -13.81152041 54.43060382 -9 57 C-9.99 57.66 -10.98 58.32 -12 59 C-15.16737348 55.95609976 -18.31809034 52.89619024 -21.4543457 49.8203125 C-22.52379507 48.77602855 -23.59768596 47.73627331 -24.67602539 46.70117188 C-26.22427869 45.21348071 -27.75589136 43.71029773 -29.28515625 42.203125 C-30.21207275 41.30239258 -31.13898926 40.40166016 -32.09399414 39.47363281 C-34 37 -34 37 -33.81555176 35.06311035 C-32.85364127 32.62975471 -31.71586607 31.35408813 -29.85717773 29.51660156 C-29.19656845 28.85621887 -28.53595917 28.19583618 -27.85533142 27.51544189 C-27.13865799 26.81425232 -26.42198456 26.11306274 -25.68359375 25.390625 C-24.58701195 24.30041046 -24.58701195 24.30041046 -23.46827698 23.18817139 C-21.13162843 20.86831599 -18.78476516 18.559108 -16.4375 16.25 C-14.85152964 14.67907557 -13.26623457 13.10746906 -11.68164062 11.53515625 C-7.79556178 7.68215516 -3.90104457 3.83784481 0 0 Z " fill="#1A70DE" transform="translate(196,343)"/>
<path d="M0 0 C0.33 0 0.66 0 1 0 C1.98866122 8.76956896 2.34521355 17.52602784 2.45996094 26.34399414 C2.48675067 27.91201009 2.52787345 29.47984383 2.58300781 31.04711914 C3.09225323 45.78302492 3.09225323 45.78302492 -1.32421875 50.86328125 C-2.52186032 51.94037943 -3.74670362 52.98820259 -5 54 C-6.11237193 55.1588459 -7.21709955 56.32509873 -8.3125 57.5 C-11 60 -11 60 -13 60 C-13.66 61.32 -14.32 62.64 -15 64 C-15.66 63.67 -16.32 63.34 -17 63 C-15.51623632 59.08825938 -13.54664523 58.04983153 -10 56 C-5.95435226 53.5332207 -3.36143591 51.14933614 -1 47 C0.50658857 39.79439722 -0.15506826 32.24223883 -0.4375 24.9375 C-0.48269444 22.90698975 -0.52375031 20.87638292 -0.56054688 18.84570312 C-0.65922522 13.89473317 -0.8142312 8.94843635 -1 4 C-2.98 4.99 -2.98 4.99 -5 6 C-3.35830472 3.97945196 -1.69088222 1.97956942 0 0 Z " fill="#177AE9" transform="translate(294,246)"/>
<path d="M0 0 C2.66150562 4.62899335 2.33094762 8.9080117 2.3125 14.125 C2.32861328 15.04410156 2.34472656 15.96320313 2.36132812 16.91015625 C2.36229492 18.22693359 2.36229492 18.22693359 2.36328125 19.5703125 C2.36775269 20.77324951 2.36775269 20.77324951 2.37231445 22.00048828 C2.24945068 22.66032715 2.12658691 23.32016602 2 24 C1.01 24.66 0.02 25.32 -1 26 C-1.0291544 22.60418484 -1.04685068 19.20840214 -1.0625 15.8125 C-1.07087891 14.85279297 -1.07925781 13.89308594 -1.08789062 12.90429688 C-1.09111328 11.97294922 -1.09433594 11.04160156 -1.09765625 10.08203125 C-1.10289307 9.22843018 -1.10812988 8.3748291 -1.11352539 7.49536133 C-0.99579323 4.90753253 -0.57107044 2.52338047 0 0 Z " fill="#1A8CF1" transform="translate(307,287)"/>
<path d="M0 0 C0.99 0 1.98 0 3 0 C1.4700928 3.60561914 -0.68696932 5.9859199 -3.4375 8.75 C-4.61119141 9.94882812 -4.61119141 9.94882812 -5.80859375 11.171875 C-8 13 -8 13 -11 13 C-9.55922954 9.63820226 -7.75249979 7.40843732 -5 5 C-4.34 5 -3.68 5 -3 5 C-2.690625 4.360625 -2.38125 3.72125 -2.0625 3.0625 C-1 1 -1 1 0 0 Z " fill="#1E7EEC" transform="translate(108,264)"/>
<path d="M0 0 C0.33 0.99 0.66 1.98 1 3 C-0.28965176 4.37562854 -1.62689293 5.70766393 -3 7 C-3.66 7 -4.32 7 -5 7 C-5.28875 7.61875 -5.5775 8.2375 -5.875 8.875 C-7 11 -7 11 -9 13 C-9.99 12.67 -10.98 12.34 -12 12 C-10.71937515 10.2925002 -9.38232443 8.62626404 -8 7 C-7.34 7 -6.68 7 -6 7 C-5.67 6.01 -5.34 5.02 -5 4 C-4.34 4 -3.68 4 -3 4 C-2.67 3.01 -2.34 2.02 -2 1 C-1.34 0.67 -0.68 0.34 0 0 Z " fill="#1E88F3" transform="translate(208,249)"/>
<path d="M0 0 C0.66 0.33 1.32 0.66 2 1 C1.54036865 1.43344727 1.0807373 1.86689453 0.60717773 2.31347656 C-1.46230851 4.2792127 -3.51236234 6.26410121 -5.5625 8.25 C-6.28630859 8.93191406 -7.01011719 9.61382812 -7.75585938 10.31640625 C-8.43583984 10.98027344 -9.11582031 11.64414062 -9.81640625 12.328125 C-10.45006104 12.9355957 -11.08371582 13.54306641 -11.73657227 14.16894531 C-13.26255719 15.94117825 -13.26255719 15.94117825 -12.69897461 18.22949219 C-12.46831299 18.81375977 -12.23765137 19.39802734 -12 20 C-13.65 19.01 -15.3 18.02 -17 17 C-11.33333333 11.33333333 -5.66666667 5.66666667 0 0 Z " fill="#1866D6" transform="translate(95,277)"/>
<path d="M0 0 C0.33 0.66 0.66 1.32 1 2 C0.01 2.66 -0.98 3.32 -2 4 C-2.1546875 4.8971875 -2.1546875 4.8971875 -2.3125 5.8125 C-3.45510235 9.44805294 -5.91557258 10.8409008 -9 13 C-9.99 12.67 -10.98 12.34 -12 12 C-11.04882866 10.8274869 -10.08882991 9.66212985 -9.125 8.5 C-8.32449219 7.52546875 -8.32449219 7.52546875 -7.5078125 6.53125 C-7.01023437 6.0259375 -6.51265625 5.520625 -6 5 C-5.34 5 -4.68 5 -4 5 C-3.71125 4.360625 -3.4225 3.72125 -3.125 3.0625 C-2 1 -2 1 0 0 Z " fill="#197CEC" transform="translate(285,255)"/>
<path d="M0 0 C0 3 0 3 -1.53125 4.60546875 C-2.1809375 5.12753906 -2.830625 5.64960937 -3.5 6.1875 C-4.1496875 6.71730469 -4.799375 7.24710938 -5.46875 7.79296875 C-5.9740625 8.19128906 -6.479375 8.58960938 -7 9 C-6.5047783 5.33535945 -5.9791794 3.29167646 -3 1 C-2.01 0.67 -1.02 0.34 0 0 Z " fill="#2386EF" transform="translate(235,51)"/>
<path d="M0 0 C0.99 0 1.98 0 3 0 C2.979375 0.94875 2.95875 1.8975 2.9375 2.875 C2.77448174 5.90666283 2.77448174 5.90666283 4 8 C3.01 9.485 3.01 9.485 2 11 C1.47007308 9.54494642 0.9513211 8.08581873 0.4375 6.625 C0.14746094 5.81289062 -0.14257812 5.00078125 -0.44140625 4.1640625 C-1 2 -1 2 0 0 Z " fill="#1994F2" transform="translate(293,163)"/>
<path d="M0 0 C1.32 0.33 2.64 0.66 4 1 C0.535 3.97 0.535 3.97 -3 7 C-2.25 2.25 -2.25 2.25 0 0 Z " fill="#1B8DF2" transform="translate(271,268)"/>
<path d="M0 0 C0.66 0.33 1.32 0.66 2 1 C0.77065985 4.68802044 -0.93859378 5.72356973 -4 8 C-4.66 7.67 -5.32 7.34 -6 7 C-5.34 6.01 -4.68 5.02 -4 4 C-3.34 4 -2.68 4 -2 4 C-2 3.34 -2 2.68 -2 2 C-1.34 2 -0.68 2 0 2 C0 1.34 0 0.68 0 0 Z " fill="#1881E9" transform="translate(234,222)"/>
<path d="M0 0 C0.33 0.99 0.66 1.98 1 3 C-0.98 4.32 -2.96 5.64 -5 7 C-5 6.01 -5 5.02 -5 4 C-4.34 4 -3.68 4 -3 4 C-2.67 3.01 -2.34 2.02 -2 1 C-1.34 0.67 -0.68 0.34 0 0 Z " fill="#197CEC" transform="translate(208,249)"/>
<path d="M0 0 C0 0.99 0 1.98 0 3 C-0.99 3.33 -1.98 3.66 -3 4 C-3 4.66 -3 5.32 -3 6 C-3.66 6 -4.32 6 -5 6 C-5 4.35 -5 2.7 -5 1 C-3.35 0.67 -1.7 0.34 0 0 Z " fill="#1D88ED" transform="translate(199,386)"/>
<path d="M0 0 C2 1 2 1 2 1 Z " fill="#00BFFF" transform="translate(303,121)"/>
<path d="" fill="#007FFF" transform="translate(0,0)"/>
<path d="" fill="#3399FF" transform="translate(0,0)"/>
<path d="" fill="#55AAFF" transform="translate(0,0)"/>
<path d="" fill="#00FFFF" transform="translate(0,0)"/>
<path d="" fill="#2491FE" transform="translate(0,0)"/>
<path d="" fill="#007FFF" transform="translate(0,0)"/>
<path d="" fill="#007FFF" transform="translate(0,0)"/>
<path d="" fill="#00FFFF" transform="translate(0,0)"/>
<path d="" fill="#00FFFF" transform="translate(0,0)"/>
<path d="" fill="#3399FF" transform="translate(0,0)"/>
<path d="" fill="#007FFF" transform="translate(0,0)"/>
<path d="" fill="#55AAFF" transform="translate(0,0)"/>
<path d="" fill="#00FFFF" transform="translate(0,0)"/>
<path d="" fill="#00FFFF" transform="translate(0,0)"/>
<path d="" fill="#00FFFF" transform="translate(0,0)"/>
<path d="" fill="#00FFFF" transform="translate(0,0)"/>
<path d="" fill="#00FFFF" transform="translate(0,0)"/>
<path d="" fill="#00FFFF" transform="translate(0,0)"/>
<path d="" fill="#007FFF" transform="translate(0,0)"/>
<path d="" fill="#00FFFF" transform="translate(0,0)"/>
<path d="" fill="#00AAFF" transform="translate(0,0)"/>
<path d="" fill="#00FFFF" transform="translate(0,0)"/>
<path d="" fill="#00FFFF" transform="translate(0,0)"/>
<path d="" fill="#00AAFF" transform="translate(0,0)"/>
<path d="" fill="#00AAFF" transform="translate(0,0)"/>
<path d="" fill="#00FFFF" transform="translate(0,0)"/>
<path d="" fill="#00AAFF" transform="translate(0,0)"/>
<path d="" fill="#00FFFF" transform="translate(0,0)"/>
<path d="" fill="#007FFF" transform="translate(0,0)"/>
<path d="" fill="#00FFFF" transform="translate(0,0)"/>
<path d="" fill="#00FFFF" transform="translate(0,0)"/>
<path d="" fill="#007FFF" transform="translate(0,0)"/>
<path d="" fill="#00AAFF" transform="translate(0,0)"/>
<path d="" fill="#00FFFF" transform="translate(0,0)"/>
<path d="" fill="#00AAFF" transform="translate(0,0)"/>
<path d="" fill="#007FFF" transform="translate(0,0)"/>
<path d="" fill="#007FFF" transform="translate(0,0)"/>
<path d="" fill="#00FFFF" transform="translate(0,0)"/>
<path d="" fill="#00FFFF" transform="translate(0,0)"/>
<path d="" fill="#00FFFF" transform="translate(0,0)"/>
<path d="" fill="#007FFF" transform="translate(0,0)"/>
<path d="" fill="#00FFFF" transform="translate(0,0)"/>
<path d="" fill="#007FFF" transform="translate(0,0)"/>
<path d="" fill="#00FFFF" transform="translate(0,0)"/>
<path d="" fill="#00FFFF" transform="translate(0,0)"/>
<path d="" fill="#00FFFF" transform="translate(0,0)"/>
<path d="" fill="#007FFF" transform="translate(0,0)"/>
<path d="" fill="#00FFFF" transform="translate(0,0)"/>
<path d="" fill="#00AAFF" transform="translate(0,0)"/>
<path d="" fill="#00FFFF" transform="translate(0,0)"/>
<path d="" fill="#007FFF" transform="translate(0,0)"/>
<path d="" fill="#00FFFF" transform="translate(0,0)"/>
<path d="" fill="#00FFFF" transform="translate(0,0)"/>
<path d="" fill="#007FFF" transform="translate(0,0)"/>
<path d="" fill="#00FFFF" transform="translate(0,0)"/>
<path d="" fill="#00FFFF" transform="translate(0,0)"/>
<path d="" fill="#00AAFF" transform="translate(0,0)"/>
<path d="" fill="#007FFF" transform="translate(0,0)"/>
<path d="" fill="#00FFFF" transform="translate(0,0)"/>
<path d="" fill="#00FFFF" transform="translate(0,0)"/>
<path d="" fill="#007FFF" transform="translate(0,0)"/>
<path d="" fill="#00FFFF" transform="translate(0,0)"/>
<path d="" fill="#00FFFF" transform="translate(0,0)"/>
<path d="" fill="#00FFFF" transform="translate(0,0)"/>
<path d="" fill="#00FFFF" transform="translate(0,0)"/>
<path d="" fill="#00AAFF" transform="translate(0,0)"/>
<path d="" fill="#00FFFF" transform="translate(0,0)"/>
<path d="" fill="#007FFF" transform="translate(0,0)"/>
<path d="" fill="#00FFFF" transform="translate(0,0)"/>
<path d="" fill="#55AAFF" transform="translate(0,0)"/>
<path d="" fill="#00FFFF" transform="translate(0,0)"/>
<path d="" fill="#00FFFF" transform="translate(0,0)"/>
<path d="" fill="#007FFF" transform="translate(0,0)"/>
<path d="" fill="#007FFF" transform="translate(0,0)"/>
<path d="" fill="#00FFFF" transform="translate(0,0)"/>
<path d="" fill="#00FFFF" transform="translate(0,0)"/>
<path d="" fill="#00AAFF" transform="translate(0,0)"/>
<path d="" fill="#00FFFF" transform="translate(0,0)"/>
<path d="" fill="#007FFF" transform="translate(0,0)"/>
<path d="" fill="#00FFFF" transform="translate(0,0)"/>
<path d="" fill="#00FFFF" transform="translate(0,0)"/>
<path d="" fill="#00FFFF" transform="translate(0,0)"/>
<path d="" fill="#007FFF" transform="translate(0,0)"/>
<path d="" fill="#55AAFF" transform="translate(0,0)"/>
<path d="" fill="#00FFFF" transform="translate(0,0)"/>
<path d="" fill="#3F7FFF" transform="translate(0,0)"/>
<path d="" fill="#00FFFF" transform="translate(0,0)"/>
<path d="" fill="#00FFFF" transform="translate(0,0)"/>
<path d="" fill="#007FFF" transform="translate(0,0)"/>
<path d="" fill="#0000FF" transform="translate(0,0)"/>
<path d="" fill="#0000FF" transform="translate(0,0)"/>
<path d="" fill="#00FFFF" transform="translate(0,0)"/>
<path d="" fill="#007FFF" transform="translate(0,0)"/>
<path d="" fill="#007FFF" transform="translate(0,0)"/>
<path d="" fill="#007FFF" transform="translate(0,0)"/>
<path d="" fill="#00FFFF" transform="translate(0,0)"/>
<path d="" fill="#00FFFF" transform="translate(0,0)"/>
<path d="" fill="#00FFFF" transform="translate(0,0)"/>
<path d="" fill="#00FFFF" transform="translate(0,0)"/>
</svg>
